<svg width="367" height="89" viewBox="0 0 367 89" fill="none" xmlns="http://www.w3.org/2000/svg">
<path fill-rule="evenodd" clip-rule="evenodd" d="M11.7286 9.2723C9.23634 9.2723 8.31096 10.1063 8.31096 12.7032V20.3991H3.41762C0.830745 20.3991 0 21.233 0 23.83V29.3934C0 31.9903 0.830745 32.8243 3.41762 32.8243H8.31096V48.9549C8.31096 57.0202 10.0671 62.5836 13.4812 65.6415C16.8988 68.6995 22.7175 70.1844 30.7516 69.9065C33.3385 69.815 34.1692 69.0725 34.1692 66.384V60.5427C34.1692 57.8542 33.3385 57.0202 30.7516 57.0202C24.379 57.0202 22.2549 55.3523 22.2549 48.3989V32.8243H30.8427C33.335 32.8243 34.1657 31.9903 34.1657 29.3934V23.83C34.1657 21.233 33.335 20.3991 30.8427 20.3991H22.2549V12.7032C22.2549 10.1063 21.4241 9.2723 18.9319 9.2723H11.7286ZM44.0961 1.94595C39.017 1.94595 37.5378 3.61391 37.5378 8.52981V9.45528C37.5378 14.3677 39.017 16.0391 44.0961 16.0391H46.0345C50.9278 16.0391 52.5893 14.3712 52.5893 9.45528V8.52981C52.5893 3.61743 50.9278 1.94595 46.0345 1.94595H44.0961ZM41.5092 20.3955C38.9223 20.3955 38.0916 21.2295 38.0916 23.8265V65.1735C38.0916 67.7705 38.9223 68.6045 41.5092 68.6045H48.7125C51.2047 68.6045 52.039 67.7705 52.039 65.1735V23.8265C52.039 21.2295 51.2082 20.3955 48.7125 20.3955H41.5092ZM57.2548 50.3414C57.2548 63.4141 64.2723 69.9944 78.3109 69.9944C89.0229 69.9944 96.1351 65.916 99.5527 57.7557C100.569 55.2538 99.7385 53.6773 97.1516 52.8433L91.1471 50.9888C88.4691 50.1549 87.2703 50.6194 86.2538 53.2128C84.9603 56.3657 82.4681 57.9422 78.6824 57.9422C73.6944 57.9422 71.2022 55.6232 71.2022 50.9888V38.0112C71.2022 33.3768 73.6944 31.0578 78.6824 31.0578C82.4681 31.0578 84.9603 32.6343 86.2538 35.7872C87.2703 38.4756 88.4691 39.1231 91.1471 38.1062L97.057 36.1602C99.6438 35.1397 100.289 34.0278 99.4581 31.3393C96.8712 23.9215 89.8537 19.0091 79.2327 19.0091C64.4581 19.0091 57.2548 26.1489 57.2548 38.6621V50.3449V50.3414ZM138.661 48.1174C137.09 44.9645 135.338 42.7406 133.491 41.4421L145.864 24.4775C147.803 21.789 146.972 20.3991 143.554 20.3991H137.367C133.396 20.3991 132.379 20.6771 130.809 23.179L120.374 37.9197H117.882V3.52242C117.882 0.833979 117.051 0 114.373 0H107.447C104.769 0 103.938 0.833979 103.938 3.52242V65.082C103.938 67.7705 104.769 68.6045 107.447 68.6045H114.373C117.051 68.6045 117.882 67.7705 117.882 65.082V50.3414H121.114C123.977 50.3414 126.007 51.5484 127.023 54.0503L131.917 65.455C133.119 68.1435 134.041 68.608 138.012 68.608H144.385C147.708 68.608 148.265 67.401 146.695 64.4346L138.661 48.1174ZM148.034 49.4159V39.5876C148.034 26.2369 155.882 19.0056 170.198 19.0056C184.513 19.0056 192.452 27.1624 192.452 38.5671V44.222C192.452 47.2799 190.882 48.8564 187.65 48.8564H161.978V51.1754C161.978 56.0877 164.747 58.4982 170.289 58.4982C174.26 58.4982 177.215 57.2912 179.062 54.7893C180.633 52.5653 181.74 52.1923 184.418 53.5823L188.944 55.9012C191.345 57.1082 191.807 58.9592 190.423 61.3696C186.823 67.116 180.079 69.9909 170.106 69.9909C154.96 69.9909 148.034 61.9256 148.034 49.4089V49.4159ZM178.417 38.7536V37.2687C178.417 32.5393 175.648 30.1288 170.198 30.1288C164.747 30.1288 161.978 32.5393 161.978 37.2687V38.7536H178.414H178.417ZM204.875 9.2723C202.383 9.2723 201.457 10.1063 201.457 12.7032V20.3991H196.564C193.977 20.3991 193.146 21.233 193.146 23.83V29.3934C193.146 31.9903 193.977 32.8243 196.564 32.8243H201.457V48.9549C201.457 57.0202 203.214 62.5836 206.628 65.6415C210.045 68.6995 215.864 70.1844 223.898 69.9065C226.485 69.815 227.316 69.0725 227.316 66.384V60.5427C227.316 57.8542 226.485 57.0202 223.898 57.0202C217.525 57.0202 215.401 55.3523 215.401 48.3989V32.8243H223.989C226.481 32.8243 227.312 31.9903 227.312 29.3934V23.83C227.312 21.233 226.481 20.3991 223.989 20.3991H215.401V12.7032C215.401 10.1063 214.571 9.2723 212.078 9.2723H204.875ZM230.779 28.6474C229.671 30.9663 230.316 32.5428 232.626 33.5597L237.705 35.6922C240.292 36.7127 240.846 36.3397 242.416 34.2072C244.172 31.8883 246.665 30.7763 250.082 30.7763C254.793 30.7763 257.194 33.0952 257.194 37.6381V39.6791C255.256 39.5876 253.041 39.4926 250.64 39.4926C235.125 39.4926 229.121 43.293 229.121 54.6978C229.121 59.9832 230.691 63.7836 233.737 66.2855C236.783 68.7874 242.234 69.9944 250.268 69.9944C258.302 69.9944 264.026 69.1604 267.721 67.4925C270.399 66.3805 271.138 65.36 271.138 62.1156V38.5671C271.138 25.4944 264.303 19.0056 250.545 19.0056C240.755 19.0056 234.2 22.25 230.782 28.6474H230.779ZM257.191 58.1287C257.191 58.4067 257.005 58.6847 256.546 58.7762C254.976 59.0542 252.483 59.1457 249.252 59.1457C244.449 59.1457 243.065 57.5692 243.065 54.6028C243.065 51.6363 244.544 50.1514 249.437 50.1514C250.359 50.1514 251.747 50.1514 253.595 50.2428C255.442 50.3343 256.641 50.3343 257.194 50.3343V58.1217L257.191 58.1287ZM280.511 21.8805C277.556 23.084 276.817 24.1995 276.817 27.2574V85.5691C276.817 88.166 277.648 89 280.234 89H287.438C289.93 89 290.761 88.166 290.761 85.5691V69.1604C293.53 69.7164 295.931 69.9944 298.055 69.9944C312.185 69.9944 319.388 62.9496 319.388 49.8769V38.1941C319.388 25.8639 312.83 19.0021 299.257 19.0021C291.777 19.0021 285.496 19.9275 280.511 21.877V21.8805ZM305.353 49.8769C305.353 54.9758 302.584 57.4777 296.951 57.4777C295.195 57.4777 293.071 57.2912 290.764 56.9217V32.8173C290.764 32.4478 290.95 32.2613 291.227 32.1698C293.351 31.7053 295.475 31.5223 297.6 31.5223C302.77 31.5223 305.357 33.7462 305.357 38.2891V49.8769H305.353ZM328.116 21.8805C325.161 23.084 324.422 24.1995 324.422 27.2574V85.5691C324.422 88.166 325.252 89 327.839 89H335.043C337.535 89 338.366 88.166 338.366 85.5691V69.1604C341.135 69.7164 343.536 69.9944 345.66 69.9944C359.79 69.9944 366.993 62.9496 366.993 49.8769V38.1941C366.993 25.8639 360.438 19.0021 346.862 19.0021C339.382 19.0021 333.101 19.9275 328.116 21.877V21.8805ZM352.958 49.8769C352.958 54.9758 350.189 57.4777 344.556 57.4777C342.8 57.4777 340.676 57.2912 338.369 56.9217V32.8173C338.369 32.4478 338.555 32.2613 338.832 32.1698C340.956 31.7053 343.08 31.5223 345.204 31.5223C350.375 31.5223 352.961 33.7462 352.961 38.2891V49.8769H352.958Z" fill="#0B0204"/>
</svg>
