<svg width="25" height="17" viewBox="0 0 25 17"  xmlns="http://www.w3.org/2000/svg">
<path d="M5.55556 4.33332H19.4444V12.6667H5.55556V4.33332ZM22.9167 8.49999C22.9167 9.6506 23.8494 10.5833 25 10.5833V14.75C25 15.9006 24.0673 16.8333 22.9167 16.8333H2.08333C0.932726 16.8333 0 15.9006 0 14.75V10.5833C1.15061 10.5833 2.08333 9.6506 2.08333 8.49999C2.08333 7.34938 1.15061 6.41666 0 6.41666V2.24999C0 1.09938 0.932726 0.166656 2.08333 0.166656H22.9167C24.0673 0.166656 25 1.09938 25 2.24999V6.41666C23.8494 6.41666 22.9167 7.34938 22.9167 8.49999ZM20.8333 3.9861C20.8333 3.4108 20.367 2.94443 19.7917 2.94443H5.20833C4.63303 2.94443 4.16667 3.4108 4.16667 3.9861V13.0139C4.16667 13.5892 4.63303 14.0555 5.20833 14.0555H19.7917C20.367 14.0555 20.8333 13.5892 20.8333 13.0139V3.9861Z" />
</svg>
